<svg preserveAspectRatio="none" width="100%" height="100%" overflow="visible" style="display: block;" viewBox="0 0 27.4909 36" fill="none" xmlns="http://www.w3.org/2000/svg">
<g id="Map pin">
<path id="Pin" fill-rule="evenodd" clip-rule="evenodd" d="M13.7455 0C21.3369 0 27.4909 6.15405 27.4909 13.7455C27.4909 14.6721 27.3992 15.5773 27.2244 16.4525C26.0113 25.5948 13.8177 36 13.8177 36C13.8177 36 3.44091 27.1451 0.880104 18.5954C0.31127 17.0872 2.88486e-05 15.4527 2.88486e-05 13.7455C2.88486e-05 6.15405 6.15408 0 13.7455 0Z" fill="var(--fill-0, black)"/>
<path id="Circle" d="M18.9818 13.7455C18.9818 10.8535 16.6374 8.50909 13.7455 8.50909C10.8535 8.50909 8.50912 10.8535 8.50912 13.7455C8.50912 16.6374 10.8535 18.9818 13.7455 18.9818C16.6374 18.9818 18.9818 16.6374 18.9818 13.7455Z" fill="var(--fill-0, white)"/>
</g>
</svg>
